<?xml version="1.0" encoding="utf-8"?>
<!-- Generator: Adobe Illustrator 22.0.1, SVG Export Plug-In . SVG Version: 6.00 Build 0)  -->
<svg version="1.1" id="Layer_1" xmlns="http://www.w3.org/2000/svg" xmlns:xlink="http://www.w3.org/1999/xlink" x="0px" y="0px"
	 viewBox="0 0 18.3 15.1" style="enable-background:new 0 0 18.3 15.1;" xml:space="preserve">
<path d="M18.3,1c0-0.2-0.1-0.4-0.2-0.6l-0.2-0.2C17.7,0.1,17.6,0,17.4,0l-0.1,0L0.9,0C0.8,0,0.6,0.1,0.4,0.2L0.3,0.3L0.2,0.4
	C0.1,0.6,0,0.8,0,1v13c0,0.6,0.5,1,1,1.1h16.3c0.6,0,1-0.5,1-1L18.3,1z M4,2.1h10.3L9.2,6.2L4,2.1z M16.2,3.2l0,9.8H2.1c0,0,0,0,0,0
	V3.2l6.3,5l0.1,0.1c0.4,0.4,1,0.4,1.4,0L16.2,3.2z" fill="#ffffff"/>
</svg>
