<svg id="Menu" xmlns="http://www.w3.org/2000/svg" width="52.485" height="40" viewBox="0 0 52.485 40">
  <g id="Group_232" data-name="Group 232">
    <path id="Path_37" data-name="Path 37" d="M3.82,281.742c-.188-.395-.63-1.015-.517-1.142a2.87,2.87,0,0,1,1.377-.831c1.641-.417,3.306-.738,5.1-1.126-.243-.318-.286-.428-.336-.431-2.406-.167-4.812-.333-7.219-.478-.7-.042-1.437-.1-1.405-1.006.029-.831.725-.651,1.311-.689,1.062-.069,2.118-.247,3.172-.405.236-.036.6-.126.66-.284,1.11-3.007,3.713-2.88,6.158-2.871,4,.014,7.994.191,11.992.273,1.614.033,3.23-.03,4.844,0,.854.017,1.309-.2,1.275-1.183-.033-.953.968-1.7,2.363-1.8,1.27-.089,2.547-.082,3.821-.116,1.849-.049,3.7-.154,5.548-.131,2.763.035,5.527.12,8.286.273.784.043,2.052-.163,2.038,1.045-.012,1.017-1.088,1.08-1.989,1.2a22.1,22.1,0,0,0-2.869.743l.038.313c1.248.136,2.5.263,3.745.411a4.209,4.209,0,0,1,1.2.249c.353.156.9.471.891.706a1.33,1.33,0,0,1-.684.995c-.741.3-1.422.531-1.724,1.4a1.341,1.341,0,0,1-.86.615,13.144,13.144,0,0,0-3.16,1.476,9.665,9.665,0,0,1-4.035.777c-5.643.39-11.292.708-16.939,1.04-2.92.172-5.843.29-8.76.491-1.208.083-2.406.319-3.609.486Zm44.442-10.774c-.551,0-1.1.008-1.653,0-4.158-.066-8.315-.17-12.473-.174a8.91,8.91,0,0,0-2.272.614l.042.533a16.3,16.3,0,0,0,2.118.747c4.9,1.022,9.589-.11,14.239-1.719M8.238,274.849l.128.6,14.878-1.027-.02-.666c-4.029,0-8.06-.065-12.086.046-.986.027-2.239-.033-2.9,1.043m4.829,3.908.081.3c1.957-.222,4.063.355,5.836-.853l-.1-.537-5.817,1.089M30.5,276.727l.018.083h6.8l-.017-.536-6.805.453" transform="translate(-0.814 -241.742)" fill="#000"/>
    <path id="Path_38" data-name="Path 38" d="M8.015,151.089a7.824,7.824,0,0,1-1.8-.18,4.537,4.537,0,0,1-1.167-.892c.4-.271.8-.546,1.2-.806.058-.037.163-.006.245,0,.678.032,1.312.066,1.535-.843.05-.2.6-.337.936-.4,1.605-.318,3.216-.61,4.828-.893.4-.071.816-.079,1.225-.113L26.471,146c.206-.017.412-.042.619-.047,4.387-.086,8.774-.161,13.161-.255,3.26-.07,6.52-.178,9.781-.233.553-.01,1.469-.266,1.4.693-.059.787-.786.594-1.448.591a39.633,39.633,0,0,0-6.1.472,19.344,19.344,0,0,0,2.157.21c1.732-.017,3.464-.154,5.194-.129.469.007.932.415,1.4.639a10.316,10.316,0,0,1-1.369.705,3.8,3.8,0,0,1-1.16-.039c1.044,1.578,2.781.659,3.854,1.525-.139,1.193-1.059.832-1.7.759a1.425,1.425,0,0,0-1.789,1.131l3.472.366.09.571a4.772,4.772,0,0,1-1.49.438c-1.925-.1-3.849-.471-5.764-.408a22.7,22.7,0,0,0-5.4.867,22.109,22.109,0,0,1-8.913.4,12.394,12.394,0,0,0-6.437.731,28.853,28.853,0,0,1-5.627,1.191c-1.97.383-3.945.738-5.911,1.139a2.545,2.545,0,0,1-2.808-.952,1.982,1.982,0,0,0-1.292-.649c-1.772-.135-1.773-.095-1.98-1.814-.013-.112-.107-.214-.293-.071L6.1,153l1.914-1.915m6.427,4.367.105.571,5.364-1.05-.077-.4-5.392.878" transform="translate(-3.289 -131.541)" fill="#000"/>
    <path id="Path_39" data-name="Path 39" d="M41.188,6.518l-1.3-.646c1.13,1.8-.649,1.622-1.4,2.169,1.118.238,2.066.388,2.977.664.292.089.485.509.722.778-.342.148-.69.436-1.025.422-2.922-.12-5.841-.381-8.764-.428a57.546,57.546,0,0,0-8.519.241c-3.359.449-6.656,1.367-9.98,2.083a2.239,2.239,0,0,1-.715.148,12.505,12.505,0,0,1-1.346-.336,9.257,9.257,0,0,1,.923-1.124,3.672,3.672,0,0,1,1.039-.407c-2.152-.136-4.08-.19-5.989-.405A13.454,13.454,0,0,1,5,8.89c-.9-.311-1.512-.853-.811-2.183A17.935,17.935,0,0,1,1.442,6.67,4.892,4.892,0,0,1,0,5.862a4.759,4.759,0,0,1,1.447-.621c1.343-.087,2.7-.03,4.406-.03L4.813,2.62l5.955-.433q0-.2.006-.395C9.167,1.647,7.523,1.616,6.164.676Q6.172.457,6.18.238A5.36,5.36,0,0,1,7.494,0c2.955.213,5.9.588,8.861.674A60.348,60.348,0,0,0,22.379.259C22.916.22,23.457.212,23.995.223,27.66.3,31.328.317,34.988.49c3.157.149,6.306.461,9.456.742a21.98,21.98,0,0,1,2.984.5,1.23,1.23,0,0,1,.592.661,7.238,7.238,0,0,1-.953.952c-.421-.65-.983-.067-1.464-.17a1.858,1.858,0,0,1-.844-.273c-.682-.631-.757-.63-1.223.312,1.09.764,3.108.246,3.322,2.409a.519.519,0,0,1,.11.065q.721.507,1.439,1.017a6.312,6.312,0,0,1-1.749.44c-1.4-.056-2.787-.248-4.175-.425a6.874,6.874,0,0,1-1.173-.363l-.122.163M7.854,7.972l.04.539c2.938.9,5.9.236,8.852.043L7.854,7.972m.321-4.316q0,.265,0,.53c2.509.734,4.916-.278,7.354-.53ZM5.581,7.232l4.748-.962c-.568-.659-3.65-.154-4.748.962M36.119,4.012a4.946,4.946,0,0,0,4.052,0Z" transform="translate(2.047 -0.001)" fill="#000"/>
  </g>
</svg>
